<svg xmlns="http://www.w3.org/2000/svg" width="1200" height="900" viewBox="0 0 720 540" fill="none">
  <defs>
    <linearGradient id="bg" x1="90" y1="60" x2="640" y2="470" gradientUnits="userSpaceOnUse">
      <stop stop-color="#3f6212"/>
      <stop offset="1" stop-color="#bef264"/>
    </linearGradient>
    <linearGradient id="card" x1="80" y1="320" x2="580" y2="520" gradientUnits="userSpaceOnUse">
      <stop stop-color="#fffaf4" stop-opacity="0.95"/>
      <stop offset="1" stop-color="#fff5ea" stop-opacity="0.88"/>
    </linearGradient>
  </defs>
  <rect width="720" height="540" rx="36" fill="url(#bg)"/>
  <circle cx="590" cy="120" r="120" fill="#ffffff" fill-opacity="0.10"/>
  <circle cx="110" cy="90" r="80" fill="#ffffff" fill-opacity="0.08"/>
  <rect x="36" y="34" width="648" height="472" rx="34" fill="#ffffff" fill-opacity="0.08" stroke="#ffffff" stroke-opacity="0.22"/>
  <rect x="245" y="235" width="240" height="80" rx="18" fill="#8b5a2b"/><path d="M285 235 C285 195 315 170 335 145 C350 172 350 205 335 235 Z" fill="#65a30d"/><path d="M360 235 C360 190 392 160 415 132 C432 165 428 205 408 235 Z" fill="#84cc16"/>
  <rect x="36" y="346" width="648" height="158" rx="30" fill="url(#card)"/>
  <text x="54" y="382" fill="#236d54" font-size="18" font-weight="800" letter-spacing="3.2" font-family="Segoe UI, Arial, sans-serif">Garden &amp; Outdoor</text>
  <text x='54' y='402' fill='#0f172a' font-size='34' font-weight='700' font-family='Segoe UI, Arial, sans-serif'>Raised Garden Bed Kit</text>
</svg>
