<svg xmlns="http://www.w3.org/2000/svg" width="1200" height="900" viewBox="0 0 720 540" fill="none">
  <defs>
    <linearGradient id="bg" x1="90" y1="60" x2="640" y2="470" gradientUnits="userSpaceOnUse">
      <stop stop-color="#32435a"/>
      <stop offset="1" stop-color="#7aaed6"/>
    </linearGradient>
    <linearGradient id="card" x1="80" y1="320" x2="580" y2="520" gradientUnits="userSpaceOnUse">
      <stop stop-color="#fffaf4" stop-opacity="0.95"/>
      <stop offset="1" stop-color="#fff5ea" stop-opacity="0.88"/>
    </linearGradient>
  </defs>
  <rect width="720" height="540" rx="36" fill="url(#bg)"/>
  <circle cx="590" cy="120" r="120" fill="#ffffff" fill-opacity="0.10"/>
  <circle cx="110" cy="90" r="80" fill="#ffffff" fill-opacity="0.08"/>
  <rect x="36" y="34" width="648" height="472" rx="34" fill="#ffffff" fill-opacity="0.08" stroke="#ffffff" stroke-opacity="0.22"/>
  <path d="M240 275 C265 220 305 190 380 190 H445 C472 190 495 210 505 235 L530 290 H210 Z" fill="#dbeafe" opacity="0.96"/><circle cx="275" cy="290" r="34" fill="#111827"/><circle cx="470" cy="290" r="34" fill="#111827"/><path d="M315 200 H425 L465 250 H285 Z" fill="#93c5fd" opacity="0.75"/>
  <rect x="36" y="346" width="648" height="158" rx="30" fill="url(#card)"/>
  <text x="54" y="382" fill="#236d54" font-size="18" font-weight="800" letter-spacing="3.2" font-family="Segoe UI, Arial, sans-serif">Vehicles</text>
  <text x='54' y='402' fill='#0f172a' font-size='34' font-weight='700' font-family='Segoe UI, Arial, sans-serif'>Toyota Corolla 2016</text>
</svg>
